<svg xmlns="http://www.w3.org/2000/svg" viewBox="0 0 48 48" fill="none" role="img" aria-label="Rynxpense">
  <rect width="48" height="48" rx="12" fill="#0283DF"/>
  <path
    d="M24 8c-6.075 0-11 4.813-11 10.75 0 7.563 9.35 18.7 10.35 19.85a.9.9 0 0 0 1.3 0C25.65 37.45 35 26.313 35 18.75 35 12.813 30.075 8 24 8Z"
    fill="#FFFFFF"
  />
  <path
    d="M21.2 15.4h5.1c2.35 0 3.95 1.35 3.95 3.45 0 1.7-1 2.85-2.55 3.25v.1c1.85.4 3 1.65 3 3.55 0 2.5-1.9 4.05-4.7 4.05H21.2V15.4Zm2.55 5.55h2.2c1.15 0 1.85-.55 1.85-1.55s-.7-1.5-1.85-1.5h-2.2v3.05Zm0 6.85h2.55c1.3 0 2.1-.65 2.1-1.75s-.8-1.7-2.1-1.7h-2.55v3.45Z"
    fill="#FF5722"
  />
</svg>
