<svg xmlns="http://www.w3.org/2000/svg" viewBox="0 0 48 48" fill="none" role="img" aria-label="Rynxpense">
  <rect width="48" height="48" rx="12" fill="#0283DF"/>
  <path
    fill="#FFFFFF"
    d="M24 7.5c-6.35 0-11.5 5.05-11.5 11.25 0 7.9 9.75 19.55 10.8 20.75a.95.95 0 0 0 1.4 0c1.05-1.2 10.8-12.85 10.8-20.75C35.5 12.55 30.35 7.5 24 7.5Z"
  />
  <path
    fill="#FF5722"
    d="M20.6 15.2h5.35c2.45 0 4.1 1.4 4.1 3.55 0 1.55-.85 2.7-2.25 3.2 1.7.45 2.8 1.7 2.8 3.55 0 2.55-1.95 4.15-4.9 4.15H20.6V15.2Zm2.7 5.65h2.35c1.15 0 1.85-.55 1.85-1.5s-.7-1.45-1.85-1.45H23.3v2.95Zm0 6.95h2.75c1.35 0 2.15-.65 2.15-1.75s-.8-1.7-2.15-1.7H23.3v3.45Z"
  />
</svg>
